<svg xmlns="http://www.w3.org/2000/svg" viewBox="0 0 32 32"><defs><linearGradient id="g" x1="0" y1="0" x2="1" y2="1"><stop offset="0" stop-color="#6366f1"/><stop offset="1" stop-color="#4f46e5"/></linearGradient></defs><rect width="32" height="32" rx="8" fill="url(#g)"/><g transform="translate(4 4)" fill="none" stroke="#fff" stroke-width="1.9" stroke-linecap="round" stroke-linejoin="round"><path d="M8.5 4.5H7a2 2 0 0 0-2 2v13a2 2 0 0 0 2 2h10a2 2 0 0 0 2-2v-13a2 2 0 0 0-2-2h-1.5"/><rect x="8.5" y="2.5" width="7" height="4" rx="1.2"/><path d="m8.3 11.3 1.2 1.2 2-2.2M13.5 11.5h2.5M8.3 16.3l1.2 1.2 2-2.2M13.5 16.5h2.5"/></g></svg>
